ffmpeg started on 2026-04-01 at 13:10:41
Report written to "D:\Convert\FFMetrics\reports\ssim_report-6.txt"
Log level: 32
Command line:
ffmpeg -hide_banner -nostdin -r 24000/1001 -i "F:\\Convert\\files\\[DC] Make Heroine ga Oosugiru - 07_Telegram_HEVC(299).mkv" -r 24000/1001 -i "F:\\Convert\\files\\[DC] Make Heroine ga Oosugiru - 07_Telegram.mp4" -lavfi "[0:v]settb=AVTB,setpts=PTS-STARTPTS,format=pix_fmts=yuv420p10le,fps=24000/1001,scale=1920:1080:flags=lanczos:param0=3:out_range=limited:out_color_matrix=bt709:out_chroma_loc=left,setsar=1/1,setdar=(1920/1080)*(1/1),colorspace=format=yuv420p10:range=tv:primaries=bt709:trc=bt709:space=bt709:fast=0[main];[1:v]settb=AVTB,setpts=PTS-STARTPTS,format=pix_fmts=yuv420p,fps=24000/1001,scale=1920:1080:flags=lanczos:param0=3:out_range=limited:out_color_matrix=bt709:out_chroma_loc=left,setsar=1/1,setdar=(1920/1080)*(1/1),colorspace=format=yuv420p:range=tv:primaries=bt709:trc=bt709:space=bt709:fast=0[ref];[main][ref]ssim=eof_action=endall:stats_file='D\\:/Convert/FFMetrics/logs/ssim_logfile-6.txt'" -f null -
Input #0, matroska,webm, from 'F:\Convert\files\[DC] Make Heroine ga Oosugiru - 07_Telegram_HEVC(299).mkv':
  Metadata:
    COMPATIBLE_BRANDS: isomiso2avc1mp41
    MAJOR_BRAND     : isom
    MINOR_VERSION   : 512
    ENCODER         : Lavf61.7.100
  Duration: 00:24:06.79, start: -0.021000, bitrate: 865 kb/s
  Stream #0:0: Video: hevc (Main 10), yuv420p10le(tv, bt709, progressive), 1920x1080 [SAR 1:1 DAR 16:9], 23.98 fps, 23.98 tbr, 1k tbn (default)
      Metadata:
        HANDLER_NAME    : VideoHandler
        VENDOR_ID       : [0][0][0][0]
        ENCODER         : Lavc61.19.100 libx265
        BPS             : 668740
        DURATION        : 00:24:06.569708333
        NUMBER_OF_FRAMES: 34683
        NUMBER_OF_BYTES : 120922337
        _STATISTICS_WRITING_APP: mkvpropedit v94.0 ('Initiate') 64-bit
        _STATISTICS_WRITING_DATE_UTC: 2026-03-31 08:59:07
        _STATISTICS_TAGS: BPS DURATION NUMBER_OF_FRAMES NUMBER_OF_BYTES
  Stream #0:1: Audio: aac (LC), 48000 Hz, stereo, fltp (default)
      Metadata:
        HANDLER_NAME    : SoundHandler
        VENDOR_ID       : [0][0][0][0]
        ENCODER         : Lavc61.19.100 aac
        BPS             : 193194
        DURATION        : 00:24:06.784000000
        NUMBER_OF_FRAMES: 67819
        NUMBER_OF_BYTES : 34938755
        _STATISTICS_WRITING_APP: mkvpropedit v94.0 ('Initiate') 64-bit
        _STATISTICS_WRITING_DATE_UTC: 2026-03-31 08:59:07
        _STATISTICS_TAGS: BPS DURATION NUMBER_OF_FRAMES NUMBER_OF_BYTES
Input #1, mov,mp4,m4a,3gp,3g2,mj2, from 'F:\Convert\files\[DC] Make Heroine ga Oosugiru - 07_Telegram.mp4':
  Metadata:
    major_brand     : isom
    minor_version   : 512
    compatible_brands: isomiso2avc1mp41
    encoder         : Lavf60.16.100
  Duration: 00:24:06.74, start: 0.000000, bitrate: 3764 kb/s
  Stream #1:0[0x1](und): Video: h264 (High) (avc1 / 0x31637661), yuv420p(tv, bt709, progressive), 1920x1080 [SAR 1:1 DAR 16:9], 3616 kb/s, 23.98 fps, 23.98 tbr, 24k tbn (default)
      Metadata:
        handler_name    : VideoHandler
        vendor_id       : [0][0][0][0]
        encoder         : Lavc60.31.102 h264_qsv
  Stream #1:1[0x2](und): Audio: aac (HE-AACv2) (mp4a / 0x6134706D), 48000 Hz, stereo, fltp, 144 kb/s (default)
      Metadata:
        handler_name    : SoundHandler
        vendor_id       : [0][0][0][0]
Stream mapping:
  Stream #0:0 (hevc) -> settb:default
  Stream #1:0 (h264) -> settb:default
  ssim:default -> Stream #0:0 (wrapped_avframe)
  Stream #0:1 -> #0:1 (aac (native) -> pcm_s16le (native))
Output #0, null, to 'pipe:':
  Metadata:
    COMPATIBLE_BRANDS: isomiso2avc1mp41
    MAJOR_BRAND     : isom
    MINOR_VERSION   : 512
    encoder         : Lavf61.7.100
  Stream #0:0: Video: wrapped_avframe, yuv420p10le(tv, bt709, progressive), 1920x1080 [SAR 1:1 DAR 16:9], q=2-31, 200 kb/s, 23.98 fps, 23.98 tbn
      Metadata:
        encoder         : Lavc61.19.100 wrapped_avframe
  Stream #0:1: Audio: pcm_s16le, 48000 Hz, stereo, s16, 1536 kb/s (default)
      Metadata:
        HANDLER_NAME    : SoundHandler
        VENDOR_ID       : [0][0][0][0]
        _STATISTICS_TAGS: BPS DURATION NUMBER_OF_FRAMES NUMBER_OF_BYTES
        BPS             : 193194
        DURATION        : 00:24:06.784000000
        NUMBER_OF_FRAMES: 67819
        NUMBER_OF_BYTES : 34938755
        _STATISTICS_WRITING_APP: mkvpropedit v94.0 ('Initiate') 64-bit
        _STATISTICS_WRITING_DATE_UTC: 2026-03-31 08:59:07
        encoder         : Lavc61.19.100 pcm_s16le
frame=  126 fps=0.0 q=-0.0 size=N/A time=00:00:05.25 bitrate=N/A speed=10.2x    frame=  312 fps=304 q=-0.0 size=N/A time=00:00:13.01 bitrate=N/A speed=12.7x    frame=  497 fps=323 q=-0.0 size=N/A time=00:00:20.72 bitrate=N/A speed=13.5x    frame=  688 fps=333 q=-0.0 size=N/A time=00:00:28.69 bitrate=N/A speed=13.9x    frame=  877 fps=340 q=-0.0 size=N/A time=00:00:36.57 bitrate=N/A speed=14.2x    frame= 1018 fps=330 q=-0.0 size=N/A time=00:00:42.45 bitrate=N/A speed=13.7x    frame= 1189 fps=330 q=-0.0 size=N/A time=00:00:49.59 bitrate=N/A speed=13.8x    frame= 1356 fps=328 q=-0.0 size=N/A time=00:00:56.55 bitrate=N/A speed=13.7x    frame= 1514 fps=326 q=-0.0 size=N/A time=00:01:03.14 bitrate=N/A speed=13.6x    frame= 1664 fps=323 q=-0.0 size=N/A time=00:01:09.40 bitrate=N/A speed=13.5x    frame= 1839 fps=324 q=-0.0 size=N/A time=00:01:16.70 bitrate=N/A speed=13.5x    frame= 2003 fps=324 q=-0.0 size=N/A time=00:01:23.54 bitrate=N/A speed=13.5x    frame= 2122 fps=317 q=-0.0 size=N/A time=00:01:28.50 bitrate=N/A speed=13.2x    frame= 2285 fps=317 q=-0.0 size=N/A time=00:01:35.30 bitrate=N/A speed=13.2x    frame= 2439 fps=315 q=-0.0 size=N/A time=00:01:41.72 bitrate=N/A speed=13.1x    frame= 2581 fps=313 q=-0.0 size=N/A time=00:01:47.64 bitrate=N/A speed=13.1x    frame= 2750 fps=314 q=-0.0 size=N/A time=00:01:54.69 bitrate=N/A speed=13.1x    frame= 2927 fps=316 q=-0.0 size=N/A time=00:02:02.08 bitrate=N/A speed=13.2x    frame= 3121 fps=318 q=-0.0 size=N/A time=00:02:10.17 bitrate=N/A speed=13.3x    frame= 3308 fps=321 q=-0.0 size=N/A time=00:02:17.97 bitrate=N/A speed=13.4x    frame= 3497 fps=323 q=-0.0 size=N/A time=00:02:25.85 bitrate=N/A speed=13.5x    frame= 3690 fps=325 q=-0.0 size=N/A time=00:02:33.90 bitrate=N/A speed=13.6x    frame= 3881 fps=327 q=-0.0 size=N/A time=00:02:41.87 bitrate=N/A speed=13.6x    frame= 4067 fps=329 q=-0.0 size=N/A time=00:02:49.62 bitrate=N/A speed=13.7x    frame= 4259 fps=331 q=-0.0 size=N/A time=00:02:57.63 bitrate=N/A speed=13.8x    frame= 4451 fps=332 q=-0.0 size=N/A time=00:03:05.64 bitrate=N/A speed=13.8x    frame= 4638 fps=333 q=-0.0 size=N/A time=00:03:13.44 bitrate=N/A speed=13.9x    frame= 4824 fps=334 q=-0.0 size=N/A time=00:03:21.20 bitrate=N/A speed=13.9x    frame= 5016 fps=335 q=-0.0 size=N/A time=00:03:29.20 bitrate=N/A speed=  14x    frame= 5205 fps=337 q=-0.0 size=N/A time=00:03:37.09 bitrate=N/A speed=  14x    frame= 5390 fps=337 q=-0.0 size=N/A time=00:03:44.80 bitrate=N/A speed=14.1x    frame= 5582 fps=338 q=-0.0 size=N/A time=00:03:52.81 bitrate=N/A speed=14.1x    frame= 5775 fps=339 q=-0.0 size=N/A time=00:04:00.86 bitrate=N/A speed=14.2x    frame= 5958 fps=340 q=-0.0 size=N/A time=00:04:08.49 bitrate=N/A speed=14.2x    frame= 6152 fps=341 q=-0.0 size=N/A time=00:04:16.58 bitrate=N/A speed=14.2x    frame= 6346 fps=342 q=-0.0 size=N/A time=00:04:24.68 bitrate=N/A speed=14.3x    frame= 6534 fps=342 q=-0.0 size=N/A time=00:04:32.52 bitrate=N/A speed=14.3x    frame= 6727 fps=343 q=-0.0 size=N/A time=00:04:40.57 bitrate=N/A speed=14.3x    frame= 6914 fps=344 q=-0.0 size=N/A time=00:04:48.37 bitrate=N/A speed=14.3x    frame= 7106 fps=344 q=-0.0 size=N/A time=00:04:56.37 bitrate=N/A speed=14.4x    frame= 7292 fps=345 q=-0.0 size=N/A time=00:05:04.13 bitrate=N/A speed=14.4x    frame= 7481 fps=346 q=-0.0 size=N/A time=00:05:12.02 bitrate=N/A speed=14.4x    frame= 7662 fps=346 q=-0.0 size=N/A time=00:05:19.56 bitrate=N/A speed=14.4x    frame= 7856 fps=346 q=-0.0 size=N/A time=00:05:27.66 bitrate=N/A speed=14.4x    frame= 8042 fps=347 q=-0.0 size=N/A time=00:05:35.41 bitrate=N/A speed=14.5x    frame= 8225 fps=347 q=-0.0 size=N/A time=00:05:43.05 bitrate=N/A speed=14.5x    frame= 8419 fps=348 q=-0.0 size=N/A time=00:05:51.14 bitrate=N/A speed=14.5x    frame= 8611 fps=348 q=-0.0 size=N/A time=00:05:59.15 bitrate=N/A speed=14.5x    frame= 8796 fps=348 q=-0.0 size=N/A time=00:06:06.86 bitrate=N/A speed=14.5x    frame= 8983 fps=349 q=-0.0 size=N/A time=00:06:14.66 bitrate=N/A speed=14.5x    frame= 9182 fps=349 q=-0.0 size=N/A time=00:06:22.96 bitrate=N/A speed=14.6x    frame= 9374 fps=349 q=-0.0 size=N/A time=00:06:30.97 bitrate=N/A speed=14.6x    frame= 9563 fps=350 q=-0.0 size=N/A time=00:06:38.85 bitrate=N/A speed=14.6x    frame= 9752 fps=350 q=-0.0 size=N/A time=00:06:46.73 bitrate=N/A speed=14.6x    frame= 9941 fps=350 q=-0.0 size=N/A time=00:06:54.62 bitrate=N/A speed=14.6x    frame=10127 fps=350 q=-0.0 size=N/A time=00:07:02.38 bitrate=N/A speed=14.6x    frame=10318 fps=351 q=-0.0 size=N/A time=00:07:10.34 bitrate=N/A speed=14.6x    frame=10499 fps=351 q=-0.0 size=N/A time=00:07:17.89 bitrate=N/A speed=14.6x    frame=10680 fps=351 q=-0.0 size=N/A time=00:07:25.44 bitrate=N/A speed=14.6x    frame=10868 fps=351 q=-0.0 size=N/A time=00:07:33.28 bitrate=N/A speed=14.6x    frame=11053 fps=351 q=-0.0 size=N/A time=00:07:41.00 bitrate=N/A speed=14.7x    frame=11232 fps=351 q=-0.0 size=N/A time=00:07:48.46 bitrate=N/A speed=14.6x    frame=11419 fps=351 q=-0.0 size=N/A time=00:07:56.26 bitrate=N/A speed=14.7x    frame=11612 fps=352 q=-0.0 size=N/A time=00:08:04.31 bitrate=N/A speed=14.7x    frame=11801 fps=352 q=-0.0 size=N/A time=00:08:12.20 bitrate=N/A speed=14.7x    frame=11990 fps=352 q=-0.0 size=N/A time=00:08:20.08 bitrate=N/A speed=14.7x    frame=12176 fps=352 q=-0.0 size=N/A time=00:08:27.84 bitrate=N/A speed=14.7x    frame=12367 fps=353 q=-0.0 size=N/A time=00:08:35.80 bitrate=N/A speed=14.7x    frame=12559 fps=353 q=-0.0 size=N/A time=00:08:43.81 bitrate=N/A speed=14.7x    frame=12749 fps=353 q=-0.0 size=N/A time=00:08:51.73 bitrate=N/A speed=14.7x    frame=12932 fps=353 q=-0.0 size=N/A time=00:08:59.37 bitrate=N/A speed=14.7x    frame=13114 fps=353 q=-0.0 size=N/A time=00:09:06.96 bitrate=N/A speed=14.7x    frame=13304 fps=353 q=-0.0 size=N/A time=00:09:14.88 bitrate=N/A speed=14.7x    frame=13487 fps=353 q=-0.0 size=N/A time=00:09:22.52 bitrate=N/A speed=14.7x    frame=13673 fps=354 q=-0.0 size=N/A time=00:09:30.27 bitrate=N/A speed=14.7x    frame=13867 fps=354 q=-0.0 size=N/A time=00:09:38.36 bitrate=N/A speed=14.8x    frame=14054 fps=354 q=-0.0 size=N/A time=00:09:46.16 bitrate=N/A speed=14.8x    frame=14234 fps=354 q=-0.0 size=N/A time=00:09:53.67 bitrate=N/A speed=14.8x    frame=14420 fps=354 q=-0.0 size=N/A time=00:10:01.43 bitrate=N/A speed=14.8x    frame=14608 fps=354 q=-0.0 size=N/A time=00:10:09.27 bitrate=N/A speed=14.8x    frame=14801 fps=354 q=-0.0 size=N/A time=00:10:17.32 bitrate=N/A speed=14.8x    frame=14986 fps=354 q=-0.0 size=N/A time=00:10:25.04 bitrate=N/A speed=14.8x    frame=15153 fps=354 q=-0.0 size=N/A time=00:10:32.00 bitrate=N/A speed=14.8x    frame=15338 fps=354 q=-0.0 size=N/A time=00:10:39.72 bitrate=N/A speed=14.8x    frame=15515 fps=354 q=-0.0 size=N/A time=00:10:47.10 bitrate=N/A speed=14.8x    frame=15701 fps=354 q=-0.0 size=N/A time=00:10:54.86 bitrate=N/A speed=14.8x    frame=15899 fps=354 q=-0.0 size=N/A time=00:11:03.12 bitrate=N/A speed=14.8x    frame=16093 fps=354 q=-0.0 size=N/A time=00:11:11.21 bitrate=N/A speed=14.8x    frame=16282 fps=355 q=-0.0 size=N/A time=00:11:19.09 bitrate=N/A speed=14.8x    frame=16465 fps=355 q=-0.0 size=N/A time=00:11:26.72 bitrate=N/A speed=14.8x    frame=16660 fps=355 q=-0.0 size=N/A time=00:11:34.86 bitrate=N/A speed=14.8x    frame=16849 fps=355 q=-0.0 size=N/A time=00:11:42.74 bitrate=N/A speed=14.8x    frame=17033 fps=355 q=-0.0 size=N/A time=00:11:50.41 bitrate=N/A speed=14.8x    frame=17222 fps=355 q=-0.0 size=N/A time=00:11:58.30 bitrate=N/A speed=14.8x    frame=17417 fps=355 q=-0.0 size=N/A time=00:12:06.43 bitrate=N/A speed=14.8x    frame=17608 fps=355 q=-0.0 size=N/A time=00:12:14.40 bitrate=N/A speed=14.8x    frame=17788 fps=355 q=-0.0 size=N/A time=00:12:21.90 bitrate=N/A speed=14.8x    frame=17977 fps=355 q=-0.0 size=N/A time=00:12:29.79 bitrate=N/A speed=14.8x    frame=18166 fps=356 q=-0.0 size=N/A time=00:12:37.67 bitrate=N/A speed=14.8x    frame=18351 fps=356 q=-0.0 size=N/A time=00:12:45.38 bitrate=N/A speed=14.8x    frame=18535 fps=356 q=-0.0 size=N/A time=00:12:53.06 bitrate=N/A speed=14.8x    frame=18722 fps=356 q=-0.0 size=N/A time=00:13:00.86 bitrate=N/A speed=14.8x    frame=18916 fps=356 q=-0.0 size=N/A time=00:13:08.95 bitrate=N/A speed=14.8x    frame=19110 fps=356 q=-0.0 size=N/A time=00:13:17.04 bitrate=N/A speed=14.8x    frame=19302 fps=356 q=-0.0 size=N/A time=00:13:25.05 bitrate=N/A speed=14.9x    frame=19487 fps=356 q=-0.0 size=N/A time=00:13:32.77 bitrate=N/A speed=14.9x    frame=19672 fps=356 q=-0.0 size=N/A time=00:13:40.48 bitrate=N/A speed=14.9x    frame=19870 fps=357 q=-0.0 size=N/A time=00:13:48.74 bitrate=N/A speed=14.9x    frame=20055 fps=357 q=-0.0 size=N/A time=00:13:56.46 bitrate=N/A speed=14.9x    frame=20246 fps=357 q=-0.0 size=N/A time=00:14:04.42 bitrate=N/A speed=14.9x    frame=20431 fps=357 q=-0.0 size=N/A time=00:14:12.14 bitrate=N/A speed=14.9x    frame=20623 fps=357 q=-0.0 size=N/A time=00:14:20.15 bitrate=N/A speed=14.9x    frame=20809 fps=357 q=-0.0 size=N/A time=00:14:27.90 bitrate=N/A speed=14.9x    frame=21000 fps=357 q=-0.0 size=N/A time=00:14:35.87 bitrate=N/A speed=14.9x    frame=21187 fps=357 q=-0.0 size=N/A time=00:14:43.67 bitrate=N/A speed=14.9x    frame=21379 fps=357 q=-0.0 size=N/A time=00:14:51.68 bitrate=N/A speed=14.9x    frame=21570 fps=357 q=-0.0 size=N/A time=00:14:59.64 bitrate=N/A speed=14.9x    frame=21756 fps=357 q=-0.0 size=N/A time=00:15:07.40 bitrate=N/A speed=14.9x    frame=21949 fps=357 q=-0.0 size=N/A time=00:15:15.45 bitrate=N/A speed=14.9x    frame=22142 fps=357 q=-0.0 size=N/A time=00:15:23.50 bitrate=N/A speed=14.9x    frame=22330 fps=358 q=-0.0 size=N/A time=00:15:31.34 bitrate=N/A speed=14.9x    frame=22516 fps=358 q=-0.0 size=N/A time=00:15:39.10 bitrate=N/A speed=14.9x    frame=22708 fps=358 q=-0.0 size=N/A time=00:15:47.11 bitrate=N/A speed=14.9x    frame=22894 fps=358 q=-0.0 size=N/A time=00:15:54.87 bitrate=N/A speed=14.9x    frame=23081 fps=358 q=-0.0 size=N/A time=00:16:02.67 bitrate=N/A speed=14.9x    frame=23269 fps=358 q=-0.0 size=N/A time=00:16:10.51 bitrate=N/A speed=14.9x    frame=23467 fps=358 q=-0.0 size=N/A time=00:16:18.76 bitrate=N/A speed=14.9x    frame=23656 fps=358 q=-0.0 size=N/A time=00:16:26.65 bitrate=N/A speed=14.9x    frame=23843 fps=358 q=-0.0 size=N/A time=00:16:34.45 bitrate=N/A speed=14.9x    frame=24031 fps=358 q=-0.0 size=N/A time=00:16:42.29 bitrate=N/A speed=14.9x    frame=24223 fps=358 q=-0.0 size=N/A time=00:16:50.30 bitrate=N/A speed=14.9x    frame=24417 fps=358 q=-0.0 size=N/A time=00:16:58.39 bitrate=N/A speed=14.9x    frame=24611 fps=358 q=-0.0 size=N/A time=00:17:06.48 bitrate=N/A speed=  15x    frame=24794 fps=358 q=-0.0 size=N/A time=00:17:14.11 bitrate=N/A speed=  15x    frame=24985 fps=359 q=-0.0 size=N/A time=00:17:22.08 bitrate=N/A speed=  15x    frame=25176 fps=359 q=-0.0 size=N/A time=00:17:30.04 bitrate=N/A speed=  15x    frame=25372 fps=359 q=-0.0 size=N/A time=00:17:38.22 bitrate=N/A speed=  15x    frame=25556 fps=359 q=-0.0 size=N/A time=00:17:45.89 bitrate=N/A speed=  15x    frame=25750 fps=359 q=-0.0 size=N/A time=00:17:53.98 bitrate=N/A speed=  15x    frame=25943 fps=359 q=-0.0 size=N/A time=00:18:02.03 bitrate=N/A speed=  15x    frame=26130 fps=359 q=-0.0 size=N/A time=00:18:09.83 bitrate=N/A speed=  15x    frame=26319 fps=359 q=-0.0 size=N/A time=00:18:17.72 bitrate=N/A speed=  15x    frame=26513 fps=359 q=-0.0 size=N/A time=00:18:25.81 bitrate=N/A speed=  15x    frame=26698 fps=359 q=-0.0 size=N/A time=00:18:33.52 bitrate=N/A speed=  15x    frame=26886 fps=359 q=-0.0 size=N/A time=00:18:41.37 bitrate=N/A speed=  15x    frame=27064 fps=359 q=-0.0 size=N/A time=00:18:48.79 bitrate=N/A speed=  15x    frame=27256 fps=359 q=-0.0 size=N/A time=00:18:56.80 bitrate=N/A speed=  15x    frame=27440 fps=359 q=-0.0 size=N/A time=00:19:04.47 bitrate=N/A speed=  15x    frame=27624 fps=359 q=-0.0 size=N/A time=00:19:12.15 bitrate=N/A speed=  15x    frame=27814 fps=359 q=-0.0 size=N/A time=00:19:20.07 bitrate=N/A speed=  15x    frame=28000 fps=359 q=-0.0 size=N/A time=00:19:27.83 bitrate=N/A speed=  15x    frame=28187 fps=359 q=-0.0 size=N/A time=00:19:35.63 bitrate=N/A speed=  15x    frame=28371 fps=359 q=-0.0 size=N/A time=00:19:43.30 bitrate=N/A speed=  15x    frame=28564 fps=359 q=-0.0 size=N/A time=00:19:51.35 bitrate=N/A speed=  15x    frame=28740 fps=359 q=-0.0 size=N/A time=00:19:58.69 bitrate=N/A speed=  15x    frame=28915 fps=359 q=-0.0 size=N/A time=00:20:05.99 bitrate=N/A speed=  15x    frame=29093 fps=359 q=-0.0 size=N/A time=00:20:13.42 bitrate=N/A speed=  15x    frame=29274 fps=359 q=-0.0 size=N/A time=00:20:20.96 bitrate=N/A speed=  15x    frame=29455 fps=359 q=-0.0 size=N/A time=00:20:28.51 bitrate=N/A speed=  15x    frame=29634 fps=359 q=-0.0 size=N/A time=00:20:35.98 bitrate=N/A speed=  15x    frame=29808 fps=359 q=-0.0 size=N/A time=00:20:43.24 bitrate=N/A speed=  15x    frame=29988 fps=359 q=-0.0 size=N/A time=00:20:50.74 bitrate=N/A speed=  15x    frame=30166 fps=358 q=-0.0 size=N/A time=00:20:58.17 bitrate=N/A speed=  15x    frame=30356 fps=359 q=-0.0 size=N/A time=00:21:06.09 bitrate=N/A speed=  15x    frame=30544 fps=359 q=-0.0 size=N/A time=00:21:13.93 bitrate=N/A speed=  15x    frame=30727 fps=359 q=-0.0 size=N/A time=00:21:21.57 bitrate=N/A speed=  15x    frame=30923 fps=359 q=-0.0 size=N/A time=00:21:29.74 bitrate=N/A speed=  15x    frame=31109 fps=359 q=-0.0 size=N/A time=00:21:37.50 bitrate=N/A speed=  15x    frame=31299 fps=359 q=-0.0 size=N/A time=00:21:45.42 bitrate=N/A speed=  15x    frame=31481 fps=359 q=-0.0 size=N/A time=00:21:53.02 bitrate=N/A speed=  15x    frame=31672 fps=359 q=-0.0 size=N/A time=00:22:00.98 bitrate=N/A speed=  15x    frame=31856 fps=359 q=-0.0 size=N/A time=00:22:08.66 bitrate=N/A speed=  15x    frame=32033 fps=359 q=-0.0 size=N/A time=00:22:16.04 bitrate=N/A speed=  15x    frame=32222 fps=359 q=-0.0 size=N/A time=00:22:23.92 bitrate=N/A speed=  15x    frame=32414 fps=359 q=-0.0 size=N/A time=00:22:31.93 bitrate=N/A speed=  15x    frame=32599 fps=359 q=-0.0 size=N/A time=00:22:39.64 bitrate=N/A speed=  15x    frame=32754 fps=358 q=-0.0 size=N/A time=00:22:46.11 bitrate=N/A speed=  15x    frame=32915 fps=358 q=-0.0 size=N/A time=00:22:52.82 bitrate=N/A speed=14.9x    frame=33097 fps=358 q=-0.0 size=N/A time=00:23:00.42 bitrate=N/A speed=14.9x    frame=33268 fps=358 q=-0.0 size=N/A time=00:23:07.55 bitrate=N/A speed=14.9x    frame=33443 fps=358 q=-0.0 size=N/A time=00:23:14.85 bitrate=N/A speed=14.9x    frame=33602 fps=358 q=-0.0 size=N/A time=00:23:21.48 bitrate=N/A speed=14.9x    frame=33750 fps=357 q=-0.0 size=N/A time=00:23:27.65 bitrate=N/A speed=14.9x    frame=33881 fps=357 q=-0.0 size=N/A time=00:23:33.12 bitrate=N/A speed=14.9x    frame=34051 fps=357 q=-0.0 size=N/A time=00:23:40.21 bitrate=N/A speed=14.9x    frame=34225 fps=356 q=-0.0 size=N/A time=00:23:47.46 bitrate=N/A speed=14.9x    frame=34369 fps=356 q=-0.0 size=N/A time=00:23:53.47 bitrate=N/A speed=14.8x    frame=34513 fps=356 q=-0.0 size=N/A time=00:23:59.47 bitrate=N/A speed=14.8x    [Parsed_ssim_16 @ 000002cec3d41140] SSIM Y:0.993484 (21.860259) U:0.993813 (22.085266) V:0.993400 (21.804827) All:0.993525 (21.887593)
[out#0/null @ 000002ceb73edec0] video:14903KiB audio:271276KiB subtitle:0KiB other streams:0KiB global headers:0KiB muxing overhead: unknown
frame=34683 fps=356 q=-0.0 Lsize=N/A time=00:24:06.57 bitrate=N/A speed=14.8x    
